<svg aria-hidden="true" style="position: absolute; width: 0; height: 0; overflow: hidden;" version="1.1" xmlns="http://www.w3.org/2000/svg" xmlns:xlink="http://www.w3.org/1999/xlink">
<defs>
<symbol id="icon-cart" viewBox="0 0 32 32">
<path d="M12 29c0 1.657-1.343 3-3 3s-3-1.343-3-3c0-1.657 1.343-3 3-3s3 1.343 3 3z"></path>
<path d="M32 29c0 1.657-1.343 3-3 3s-3-1.343-3-3c0-1.657 1.343-3 3-3s3 1.343 3 3z"></path>
<path d="M32 16v-12h-24c0-1.105-0.895-2-2-2h-6v2h4l1.502 12.877c-0.915 0.733-1.502 1.859-1.502 3.123 0 2.209 1.791 4 4 4h24v-2h-24c-1.105 0-2-0.895-2-2 0-0.007 0-0.014 0-0.020l26-3.98z"></path>
</symbol>
<symbol id="icon-bin2" viewBox="0 0 32 32">
<path d="M6 32h20l2-22h-24zM20 4v-4h-8v4h-10v6l2-2h24l2 2v-6h-10zM18 4h-4v-2h4v2z"></path>
</symbol>
<symbol id="icon-cross" viewBox="0 0 32 32">
<path d="M31.708 25.708c-0-0-0-0-0-0l-9.708-9.708 9.708-9.708c0-0 0-0 0-0 0.105-0.105 0.18-0.227 0.229-0.357 0.133-0.356 0.057-0.771-0.229-1.057l-4.586-4.586c-0.286-0.286-0.702-0.361-1.057-0.229-0.13 0.048-0.252 0.124-0.357 0.228 0 0-0 0-0 0l-9.708 9.708-9.708-9.708c-0-0-0-0-0-0-0.105-0.104-0.227-0.18-0.357-0.228-0.356-0.133-0.771-0.057-1.057 0.229l-4.586 4.586c-0.286 0.286-0.361 0.702-0.229 1.057 0.049 0.13 0.124 0.252 0.229 0.357 0 0 0 0 0 0l9.708 9.708-9.708 9.708c-0 0-0 0-0 0-0.104 0.105-0.18 0.227-0.229 0.357-0.133 0.355-0.057 0.771 0.229 1.057l4.586 4.586c0.286 0.286 0.702 0.361 1.057 0.229 0.13-0.049 0.252-0.124 0.357-0.229 0-0 0-0 0-0l9.708-9.708 9.708 9.708c0 0 0 0 0 0 0.105 0.105 0.227 0.18 0.357 0.229 0.356 0.133 0.771 0.057 1.057-0.229l4.586-4.586c0.286-0.286 0.362-0.702 0.229-1.057-0.049-0.13-0.124-0.252-0.229-0.357z"></path>
</symbol>
<symbol id="icon-checkbox-checked" viewBox="0 0 32 32">
<path d="M28 0h-24c-2.2 0-4 1.8-4 4v24c0 2.2 1.8 4 4 4h24c2.2 0 4-1.8 4-4v-24c0-2.2-1.8-4-4-4zM14 24.828l-7.414-7.414 2.828-2.828 4.586 4.586 9.586-9.586 2.828 2.828-12.414 12.414z"></path>
</symbol>
<symbol id="icon-checkbox-unchecked" viewBox="0 0 32 32">
<path d="M28 0h-24c-2.2 0-4 1.8-4 4v24c0 2.2 1.8 4 4 4h24c2.2 0 4-1.8 4-4v-24c0-2.2-1.8-4-4-4zM28 28h-24v-24h24v24z"></path>
</symbol>
<symbol id="icon-cart-2" viewBox="0 0 36 32">
<path d="M13.532 5.483c-0.804 1.115-1.088 2.507-1.088 3.406v1.778h10.667v-1.778c0-0.901-0.284-2.292-1.086-3.406-0.738-1.024-1.982-1.927-4.247-1.927s-3.509 0.903-4.245 1.927zM26.667 10.667v-1.778c0-1.47-0.427-3.634-1.756-5.483-1.397-1.94-3.708-3.406-7.132-3.406s-5.735 1.467-7.132 3.406c-1.33 1.849-1.756 4.012-1.756 5.483v1.778h-7.111c-0.472 0-0.924 0.187-1.257 0.521s-0.521 0.786-0.521 1.257c0 0.472 0.187 0.924 0.521 1.257s0.786 0.521 1.257 0.521h0.169l1.618 16.178c0.044 0.439 0.249 0.845 0.576 1.141s0.752 0.459 1.193 0.459h24.889c0.441 0 0.866-0.164 1.193-0.459s0.532-0.702 0.576-1.141l1.618-16.178h0.169c0.471 0 0.924-0.187 1.257-0.521s0.521-0.786 0.521-1.257c0-0.472-0.187-0.924-0.521-1.257s-0.786-0.521-1.257-0.521h-7.111zM12.444 19.556c0-0.471-0.187-0.924-0.521-1.257s-0.786-0.521-1.257-0.521c-0.472 0-0.924 0.187-1.257 0.521s-0.521 0.786-0.521 1.257v3.556c0 0.471 0.187 0.924 0.521 1.257s0.786 0.521 1.257 0.521c0.472 0 0.924-0.187 1.257-0.521s0.521-0.786 0.521-1.257v-3.556zM19.556 19.556c0-0.471-0.187-0.924-0.521-1.257s-0.786-0.521-1.257-0.521c-0.471 0-0.924 0.187-1.257 0.521s-0.521 0.786-0.521 1.257v3.556c0 0.471 0.187 0.924 0.521 1.257s0.786 0.521 1.257 0.521c0.471 0 0.924-0.187 1.257-0.521s0.521-0.786 0.521-1.257v-3.556zM26.667 19.556c0-0.471-0.187-0.924-0.521-1.257s-0.786-0.521-1.257-0.521c-0.471 0-0.924 0.187-1.257 0.521s-0.521 0.786-0.521 1.257v3.556c0 0.471 0.187 0.924 0.521 1.257s0.786 0.521 1.257 0.521c0.471 0 0.924-0.187 1.257-0.521s0.521-0.786 0.521-1.257v-3.556z"></path>
</symbol>
</defs>
</svg>
